<?xml version="1.0" encoding="UTF-8" standalone="no"?>
<svg
   width="350"
   height="133.33299"
   viewBox="0 0 92.604167 35.277754"
   version="1.1"
   id="svg52"
   sodipodi:docname="l4jf.svg"
   xml:space="preserve"
   inkscape:version="1.2.2 (b0a8486541, 2022-12-01)"
   inkscape:export-filename="l4jf.png"
   inkscape:export-xdpi="526.6286"
   inkscape:export-ydpi="526.6286"
   xmlns:inkscape="http://www.inkscape.org/namespaces/inkscape"
   xmlns:sodipodi="http://sodipodi.sourceforge.net/DTD/sodipodi-0.dtd"
   xmlns="http://www.w3.org/2000/svg"
   xmlns:svg="http://www.w3.org/2000/svg"><defs
     id="defs56"><rect
       x="112.16632"
       y="103.625"
       width="101.03133"
       height="16.118973"
       id="rect3311" /><rect
       x="89.940857"
       y="85.459167"
       width="154.34071"
       height="74.114662"
       id="rect3305" /></defs><sodipodi:namedview
     id="namedview54"
     pagecolor="#ffffff"
     bordercolor="#000000"
     borderopacity="0.25"
     inkscape:showpageshadow="2"
     inkscape:pageopacity="1"
     inkscape:pagecheckerboard="0"
     inkscape:deskcolor="#d1d1d1"
     showgrid="true"
     inkscape:zoom="2.2521373"
     inkscape:cx="165.62046"
     inkscape:cy="53.504732"
     inkscape:window-width="1600"
     inkscape:window-height="840"
     inkscape:window-x="0"
     inkscape:window-y="0"
     inkscape:window-maximized="1"
     inkscape:current-layer="svg52"
     showguides="false"><inkscape:grid
       type="xygrid"
       id="grid399"
       empspacing="10"
       spacingx="3.0868038"
       spacingy="1.7638905"
       originx="0"
       originy="0" /></sodipodi:namedview><text
     xml:space="preserve"
     transform="matrix(0.26458384,0,0,0.26458384,-7.5983877e-5,8.8194515)"
     id="text3303"
     style="font-style:normal;font-variant:normal;font-weight:normal;font-stretch:normal;font-family:KacstLetter;-inkscape-font-specification:KacstLetter;white-space:pre;shape-inside:url(#rect3305);display:inline;fill:#1b0e5c;fill-opacity:1;stroke:none;stroke-width:3.78;stroke-dasharray:none;stroke-opacity:1" /><g
     aria-label="LIB4JFORMATS"
     transform="matrix(0.64980809,0,0,0.5959088,-42.533024,-46.746356)"
     id="text3309"
     style="font-family:KairosSansW06-CondMedium;-inkscape-font-specification:KairosSansW06-CondMedium;letter-spacing:1.31947px;white-space:pre;shape-inside:url(#rect3311);display:inline;stroke-width:3.78"><path
       d="m 112.95802,105.0854 h 1.56 v 7.68 h 2.604 v 1.2 h -4.164 z"
       id="path1194" /><path
       d="m 119.48549,105.0854 h 1.56 v 8.88 h -1.56 z"
       id="path1196" /><path
       d="m 123.93695,105.0854 h 3.888 l 0.996,1.008 v 2.556 l -0.768,0.78 0.768,0.768 v 2.76 l -0.996,1.008 h -3.888 z m 2.916,3.792 0.408,-0.408 v -2.04 l -0.276,-0.276 h -1.488 v 2.724 z m 0.132,4.02 0.276,-0.276 v -2.28 l -0.408,-0.408 h -1.356 v 2.964 z"
       id="path1198" /><path
       d="m 136.62042,111.8414 h -0.6 v 2.124 h -1.56 v -2.124 h -3.156 v -1.056 l 2.484,-5.7 h 2.232 v 5.556 h 0.6 z m -2.16,-1.2 v -4.464 l -1.884,4.464 z"
       id="path1200" /><path
       d="m 138.89988,113.0534 v -1.932 h 1.5 v 1.464 l 0.204,0.204 h 0.996 l 0.3,-0.3 v -7.404 h 1.56 v 7.872 l -1.008,1.008 h -2.64 z"
       id="path1202" /><path
       d="m 146.35134,105.0854 h 4.032 v 1.152 h -2.472 v 2.76 h 2.268 v 1.188 h -2.268 v 3.78 h -1.56 z"
       id="path1204" /><path
       d="m 152.84281,112.9574 v -6.852 l 0.996,-1.02 h 3.012 l 1.008,1.008 v 6.864 l -1.008,1.008 h -3.012 z m 3.18,-0.132 0.276,-0.276 v -6.048 l -0.276,-0.276 h -1.344 l -0.276,0.276 v 6.048 l 0.276,0.276 z"
       id="path1206" /><path
       d="m 160.75027,105.0854 h 3.828 l 0.996,1.008 v 3.012 l -0.768,0.768 0.768,0.78 v 3.312 h -1.56 v -3.132 l -0.408,-0.396 h -1.296 v 3.528 h -1.56 z m 2.844,4.212 0.42,-0.408 v -2.388 l -0.288,-0.276 h -1.416 v 3.072 z"
       id="path1208" /><path
       d="m 168.47775,105.0854 h 2.46 l 1.404,7.548 h 0.072 l 1.404,-7.548 h 2.436 v 8.88 h -1.38 v -7.692 h -0.06 l -1.5,7.692 h -1.944 l -1.5,-7.692 h -0.072 v 7.692 h -1.32 z"
       id="path1210" /><path
       d="m 182.60123,111.4574 h -1.896 l -0.372,2.508 h -1.476 l 1.476,-8.88 h 2.7 l 1.476,8.88 h -1.536 z m -0.168,-1.164 -0.588,-4.068 h -0.36 l -0.6,4.068 z"
       id="path1212" /><path
       d="m 187.8087,106.2854 h -1.824 v -1.2 h 5.22 v 1.2 h -1.836 v 7.68 h -1.56 z"
       id="path1214" /><path
       d="m 193.48414,112.9574 v -1.428 h 1.488 v 1.056 l 0.288,0.276 h 1.416 l 0.276,-0.276 v -2.16 l -0.312,-0.312 h -2.088 l -0.936,-0.936 v -3.084 l 0.996,-1.008 h 2.784 l 1.008,1.008 v 1.32 h -1.5 v -0.948 l -0.276,-0.276 h -1.224 l -0.276,0.276 v 2.004 l 0.312,0.312 h 2.088 l 0.936,0.948 v 3.228 l -0.996,1.008 h -2.988 z"
       id="path1216" /></g><path
     id="path46-6-7-5-1-2-7"
     style="fill:#760a04;fill-opacity:1;stroke:none;stroke-width:0.723601"
     d="m 15.258426,23.687806 -10.2096022,3.799154 1.4822707,3.113599 0.551849,0.564926 c 0.6128532,0.627648 2.1021791,0.796868 3.5029725,0.275409 l 14.168396,-5.274421 c 0.781125,-0.290786 1.284879,-0.304569 1.929365,-0.285223 l -3.113995,-3.708107 c -0.547487,-0.651975 -1.742301,-0.930109 -2.798738,-0.536836 l -5.514817,2.052962 z" /><path
     id="path46-6-7-5-1-2"
     style="fill:#8b0e04;fill-opacity:1;stroke:none;stroke-width:0.723601"
     d="m 14.826138,18.395753 -10.2096029,3.799152 1.4822696,3.113599 0.5518477,0.564927 c 0.6128545,0.627645 2.102182,0.796866 3.5029736,0.275407 l 14.168395,-5.27442 c 0.781126,-0.290787 1.28488,-0.304571 1.929366,-0.285224 L 23.137392,16.881087 C 22.589905,16.229112 21.39509,15.950979 20.338654,16.344253 l -5.514817,2.05296 z" /><path
     id="path46-6-7-5"
     style="fill:#9f0f04;fill-opacity:1;stroke:none;stroke-width:0.723601"
     d="m 14.393849,13.103697 -10.2096049,3.799153 1.4822708,3.113598 0.5518478,0.564925 c 0.6128556,0.627649 2.1021831,0.79687 3.5029723,0.27541 l 14.168397,-5.27442 c 0.781125,-0.290789 1.28488,-0.30457 1.929364,-0.285223 L 22.705103,11.589031 C 22.157617,10.937059 20.9628,10.658923 19.906364,11.052196 l -5.514817,2.052962 z" /><path
     id="path46-6-7-5-1"
     style="fill:#b40f04;fill-opacity:1;stroke:none;stroke-width:0.723601"
     d="M 14.737271,7.5242548 4.5276667,11.323408 6.0099362,14.437007 6.561784,15.001933 c 0.6128545,0.627648 2.102182,0.796868 3.502975,0.275408 L 24.233154,10.00292 C 25.014278,9.7121321 25.518033,9.6983497 26.162519,9.7176944 L 23.048526,6.0095901 C 22.501038,5.3576162 21.306222,5.0794814 20.249787,5.472753 l -5.514818,2.0529628 z" /></svg>
